<mxfile host="Electron" compressed="false" modified="2021-10-30T08:37:05.318Z" agent="5.0 (Windows NT 10.0; Win64; x64) AppleWebKit/537.36 (KHTML, like Gecko) draw.io/15.4.0 Chrome/91.0.4472.164 Electron/13.5.0 Safari/537.36" version="15.4.0" etag="2l24d0RQRQhl3xjGMXqt" type="device">
  <diagram id="ETWsS70P1tHz5V-jA7J0" name="Page-1">
    <mxGraphModel dx="1038" dy="616" grid="1" gridSize="10" guides="1" tooltips="1" connect="1" arrows="1" fold="1" page="1" pageScale="1" pageWidth="827" pageHeight="1169" math="0" shadow="0">
      <root>
        <mxCell id="0" />
        <mxCell id="1" parent="0" />
        <mxCell id="4" value="BGEPR project directory in IDE" style="rounded=0;whiteSpace=wrap;html=1;fillColor=#0a865d;fontColor=#FFFFFF;fontStyle=1" parent="1" vertex="1">
          <mxGeometry x="180" y="170" width="100" height="40" as="geometry" />
        </mxCell>
        <mxCell id="qZ7mvPWVtpQdx_aLzNMV-31" style="edgeStyle=orthogonalEdgeStyle;rounded=0;orthogonalLoop=1;jettySize=auto;html=1;exitX=0;exitY=0.5;exitDx=0;exitDy=0;exitPerimeter=0;entryX=1;entryY=0.5;entryDx=0;entryDy=0;fontColor=#FFFFFF;" edge="1" parent="1" source="24" target="4">
          <mxGeometry relative="1" as="geometry" />
        </mxCell>
        <mxCell id="24" value="BGERP GIT" style="verticalLabelPosition=bottom;html=1;verticalAlign=top;align=center;strokeColor=none;fillColor=#0a865d;shape=mxgraph.azure.git_repository;" parent="1" vertex="1">
          <mxGeometry x="340" y="130" width="50" height="50" as="geometry" />
        </mxCell>
        <mxCell id="qZ7mvPWVtpQdx_aLzNMV-39" style="edgeStyle=orthogonalEdgeStyle;rounded=0;orthogonalLoop=1;jettySize=auto;html=1;exitX=1;exitY=0.5;exitDx=0;exitDy=0;exitPerimeter=0;entryX=0;entryY=0.5;entryDx=0;entryDy=0;fontColor=#FFFFFF;startArrow=none;startFill=0;" edge="1" parent="1" source="qZ7mvPWVtpQdx_aLzNMV-26" target="qZ7mvPWVtpQdx_aLzNMV-36">
          <mxGeometry relative="1" as="geometry">
            <Array as="points">
              <mxPoint x="420" y="275" />
              <mxPoint x="420" y="220" />
            </Array>
          </mxGeometry>
        </mxCell>
        <mxCell id="qZ7mvPWVtpQdx_aLzNMV-26" value="CUSTOM GIT" style="verticalLabelPosition=bottom;html=1;verticalAlign=top;align=center;strokeColor=none;fillColor=#53B4FF;shape=mxgraph.azure.git_repository;" vertex="1" parent="1">
          <mxGeometry x="340" y="250" width="50" height="50" as="geometry" />
        </mxCell>
        <mxCell id="qZ7mvPWVtpQdx_aLzNMV-27" value="&amp;nbsp; src" style="rounded=0;whiteSpace=wrap;html=1;fillColor=#0a865d;fontColor=#FFFFFF;align=left;" vertex="1" parent="1">
          <mxGeometry x="180" y="230" width="100" height="20" as="geometry" />
        </mxCell>
        <mxCell id="qZ7mvPWVtpQdx_aLzNMV-28" value="&amp;nbsp; srcx" style="rounded=0;whiteSpace=wrap;html=1;fillColor=#0a865d;fontColor=#FFFFFF;align=left;" vertex="1" parent="1">
          <mxGeometry x="180" y="250" width="100" height="20" as="geometry" />
        </mxCell>
        <mxCell id="qZ7mvPWVtpQdx_aLzNMV-29" value="&amp;nbsp; webapps" style="rounded=0;whiteSpace=wrap;html=1;fillColor=#0a865d;fontColor=#FFFFFF;align=left;" vertex="1" parent="1">
          <mxGeometry x="180" y="270" width="100" height="20" as="geometry" />
        </mxCell>
        <mxCell id="qZ7mvPWVtpQdx_aLzNMV-34" style="edgeStyle=orthogonalEdgeStyle;rounded=0;orthogonalLoop=1;jettySize=auto;html=1;fontColor=#FFFFFF;startArrow=classic;startFill=1;" edge="1" parent="1" source="qZ7mvPWVtpQdx_aLzNMV-32" target="qZ7mvPWVtpQdx_aLzNMV-26">
          <mxGeometry relative="1" as="geometry">
            <Array as="points">
              <mxPoint x="310" y="220" />
              <mxPoint x="310" y="275" />
            </Array>
          </mxGeometry>
        </mxCell>
        <mxCell id="qZ7mvPWVtpQdx_aLzNMV-32" value="&amp;nbsp; custom" style="rounded=0;whiteSpace=wrap;html=1;fillColor=#53B4FF;fontColor=#000000;align=left;" vertex="1" parent="1">
          <mxGeometry x="180" y="210" width="100" height="20" as="geometry" />
        </mxCell>
        <mxCell id="qZ7mvPWVtpQdx_aLzNMV-35" value="BGEPR running application" style="rounded=0;whiteSpace=wrap;html=1;fillColor=#0000FF;fontColor=#FFFFFF;fontStyle=1" vertex="1" parent="1">
          <mxGeometry x="450" y="170" width="100" height="40" as="geometry" />
        </mxCell>
        <mxCell id="qZ7mvPWVtpQdx_aLzNMV-40" style="edgeStyle=orthogonalEdgeStyle;rounded=0;orthogonalLoop=1;jettySize=auto;html=1;exitX=1;exitY=0.5;exitDx=0;exitDy=0;fontColor=#FFFFFF;startArrow=none;startFill=0;entryX=1;entryY=0.5;entryDx=0;entryDy=0;" edge="1" parent="1" source="qZ7mvPWVtpQdx_aLzNMV-36" target="qZ7mvPWVtpQdx_aLzNMV-38">
          <mxGeometry relative="1" as="geometry">
            <mxPoint x="570" y="250" as="targetPoint" />
            <Array as="points">
              <mxPoint x="600" y="220" />
              <mxPoint x="600" y="240" />
            </Array>
          </mxGeometry>
        </mxCell>
        <mxCell id="qZ7mvPWVtpQdx_aLzNMV-36" value="&amp;nbsp; custom" style="rounded=0;whiteSpace=wrap;html=1;fillColor=#53B4FF;fontColor=#000000;align=left;" vertex="1" parent="1">
          <mxGeometry x="450" y="210" width="100" height="20" as="geometry" />
        </mxCell>
        <mxCell id="qZ7mvPWVtpQdx_aLzNMV-38" value="&amp;nbsp; lib" style="rounded=0;whiteSpace=wrap;html=1;fillColor=#0000FF;fontColor=#FFFFFF;align=left;" vertex="1" parent="1">
          <mxGeometry x="450" y="230" width="100" height="20" as="geometry" />
        </mxCell>
        <mxCell id="qZ7mvPWVtpQdx_aLzNMV-41" value="lib/app/custom.jar" style="text;html=1;resizable=0;autosize=1;align=center;verticalAlign=middle;points=[];fillColor=none;strokeColor=none;rounded=0;fontColor=#000000;fontStyle=1" vertex="1" parent="1">
          <mxGeometry x="595" y="220" width="120" height="20" as="geometry" />
        </mxCell>
      </root>
    </mxGraphModel>
  </diagram>
</mxfile>
